#!OML:ASF F:\VICON\USERDATA\INSTALL\rory3\rory3.ASF
:FULLY-SPECIFIED
:DEGREES
54
root 0.5237059307745018 17.741118174563045 21.2118072880168 -1.983724898328148 -4.279497220173346 -4.614920630766317
lfemur -22.589782590057332 -3.515628704498324 -15.883456007414807
ltibia 23.937968630482516
lfoot -2.6646809936770826 -0.7406359419546428
ltoes -1.3899475892366997
rfemur 11.964695789332435 5.207479090936459 29.85458751805987
rtibia 40.5824795633515
rfoot -1.9588205789959767 2.8997194031883673
rtoes -1.3330470943389243
lowerback 8.838327601447482 3.063263110443062 5.304368550887596
upperback 0.11721230924767867 4.647091956062526 1.0396920128916611
thorax -4.656034910095968 2.1977295804237267 -2.045062230458448
lowerneck -16.748210944520352 -3.2978579415374543 -1.5447297305690912
upperneck 20.819674829907978 -4.434485061729991 1.532089618547753
head 9.395598307395902 -2.041810619154921 0.17920709937838195
lclavicle -1.2002164642063632e-15 1.6002909238035675e-15
lhumerus -39.18428416385751 8.176602349898102 81.46640249562975
lradius 18.7956796589601
lwrist -0.6969396270647099
lhand -25.112962603281773 23.619720159999652
lfingers 7.12502
lthumb 1.4024918924369782 53.59407076298093
rclavicle -1.2002164642063632e-15 1.6002909238035675e-15
rhumerus -23.924756592946515 -12.735874560935933 -81.51356093203785
rradius 29.405884659652237
rwrist 2.080307422014008
rhand -18.498934503022536 23.85015519017055
rfingers 7.12502
rthumb 7.788684231689377 -5.988405873090736
55
root 0.6377309024857656 17.800935800247963 22.105093613109105 -2.638767436345476 -4.303386027907169 -3.150244136516522
lfemur -20.54559779574204 -3.065547278089518 -18.54906058396429
ltibia 26.996309481285216
lfoot -3.6417804462497667 -1.365974112904381
ltoes 0.036335543686930816
rfemur 7.525348465985147 4.175575753786009 27.01020610060264
rtibia 50.283346432483924
rfoot 8.730658893445693 3.4301975369950863
rtoes 4.916042617889344
lowerback 9.048389878972674 3.043979624925975 4.035592828749617
upperback 0.09509884088683351 4.47794277470596 0.6706257402799198
thorax -4.798682719647813 2.1363628241714006 -1.7290923878807996
lowerneck -16.700340545159044 -3.2748498291106216 -1.6077760218702422
upperneck 20.935633501353397 -4.4044526541397175 1.5712810205378431
head 9.43291016627369 -2.027417664179339 0.20606911324619948
lclavicle -1.2812672717950334e-15 1.5256838607731666e-15
lhumerus -39.18329389932433 8.272241548498426 81.28621134224436
lradius 18.93915872997035
lwrist 0.08452095198993881
lhand -24.745526696403655 24.32289139293212
lfingers 7.12502
lthumb 1.757389064969504 54.2948771353779
rclavicle -1.2812672717950334e-15 1.5256838607731666e-15
rhumerus -24.953412454008017 -14.217821250711298 -81.22193805223287
rradius 28.805869389567338
rwrist 2.8594672472555316
rhand -18.234135815459467 23.31999134050821
rfingers 7.12502
rthumb 8.044268884173935 -6.508282206869234
56
root 0.721958877111749 17.86522459284284 22.793521705208136 -3.177494286889742 -4.59106331802059 -1.7280444295640767
lfemur -17.62531059339333 -2.941636259452692 -20.849683558775055
ltibia 27.952510442565924
lfoot -5.547475593322737 -0.25866836289733763
ltoes 1.2685366026003106
rfemur 1.5384833413648895 3.122076431605456 24.43659995432841
rtibia 60.10926275206336
rfoot 15.065295486969521 1.2737797454041075
rtoes 10.52735181813286
lowerback 9.396760890373368 2.9482753736544134 2.674327893351404
upperback 0.16021730302573645 4.203616548785442 0.3973124281889009
thorax -4.938603167701121 2.025965704502881 -1.2573144055336836
lowerneck -16.747996405842102 -3.164637399496344 -1.6575214962786882
upperneck 20.910608935382026 -4.237981406365192 1.5426141144555476
head 9.433698383798315 -1.9584606538627938 0.22890319247967017
lclavicle -1.3072136120337492e-15 1.5018004288564581e-15
lhumerus -38.55223259846397 7.612997786108606 81.5288307348214
lradius 19.634666455235774
lwrist 1.6893811441317825
lhand -25.232050390462938 24.522483590498265
lfingers 7.12502
lthumb 1.287520609798362 54.4903916640122
rclavicle -1.3072136120337492e-15 1.5018004288564581e-15
rhumerus -25.688544279274048 -15.579869013245316 -80.90329903655282
rradius 27.853421540298474
rwrist 4.132132298410244
rhand -17.909092520693104 22.75274850493003
rfingers 7.12502
rthumb 8.35798748060682 -7.063498772345665
57
root 0.7757567663688425 17.916279784404573 23.02122050223646 -3.6163903416636787 -4.823610233608106 -0.5809140427072443
lfemur -14.628543401293058 -3.0817267693716417 -22.854787313463127
ltibia 27.42779041987909
lfoot -7.870382366051944 1.21831701975897
ltoes 1.8149822799351107
rfemur -4.984405148169346 1.9560584335757882 22.41081468780201
rtibia 68.20666135407666
rfoot 14.518226967066596 -2.3201177361985863
rtoes 12.830974748626865
lowerback 9.722137319970741 2.7021775901502236 1.366521426228882
upperback 0.29326201593338486 3.7373882349861196 0.22488021831640803
thorax -5.027310797517722 1.8217361195598722 -0.7526487577460187
lowerneck -16.79130910851405 -3.0063193248698363 -1.6990457068214846
upperneck 20.805672754791146 -3.995382048604297 1.437907004227243
head 9.400765918122723 -1.860534696911847 0.23690843575413642
lclavicle -1.5777212750244098e-15 1.252525819042492e-15
lhumerus -37.5215250075915 6.468397047283502 81.94895503100902
lradius 20.297795866277397
lwrist 3.078338616946145
lhand -26.198430599622718 23.74357795193159
lfingers 7.12502
lthumb 0.35418885922103027 53.707930951825055
rclavicle -1.5777212750244098e-15 1.252525819042492e-15
rhumerus -26.173514978131443 -16.976658396320172 -80.66733809426299
rradius 26.729488106350757
rwrist 5.557467611514222
rhand -17.63893739298222 22.084491976533553
rfingers 7.12502
rthumb 8.618723774750014 -7.7204318715767775
58
root 0.8100758193690867 17.951276199525548 23.35482128458702 -3.947827010436877 -4.731795201565956 0.17111434218885035
lfemur -11.874930545733356 -3.2977863448223483 -24.388431587557356
ltibia 26.50610244904556
lfoot -9.891229552834538 2.285950436956548
ltoes 1.8214850033266692
rfemur -11.204386559548794 0.8807850924669984 21.13901054382465
rtibia 73.30308984535195
rfoot 9.049758184836971 -5.3719841590697355
rtoes 12.098083103853183
lowerback 9.942459195422018 2.2831464017827687 0.35190733824817333
upperback 0.4359679820784988 3.072275748527069 0.19123455316393567
thorax -5.061640557515488 1.5159773001006736 -0.25896574696957886
lowerneck -16.732592720687908 -2.846056628300145 -1.7485152321852222
upperneck 20.750035792125022 -3.7446841248681593 1.2753201741097722
head 9.365977337500418 -1.762433586652465 0.23392669454791704
lclavicle -1.9528691717144143e-15 9.069407697836984e-16
lhumerus -36.10810972170794 5.080019552782583 82.36697792529172
lradius 20.77941120168164
lwrist 3.6919099846539165
lhand -26.972457894249057 22.863877642214803
lfingers 7.12502
lthumb -0.3933846275759388 52.82691266611871
rclavicle -1.9528691717144143e-15 9.069407697836984e-16
rhumerus -26.59413083133782 -18.405546996900718 -80.42595377059007
rradius 25.68741070865345
rwrist 6.72890009965627
rhand -17.42598606961882 21.65628476963984
rfingers 7.12502
rthumb 8.824241245522765 -8.138684635411641
59
root 0.8323243340879174 17.965171383883465 23.92586847465447 -4.172995420948911 -4.266494919658693 0.6539041799411387
lfemur -9.349265267642295 -3.5270642925169344 -25.568271254236063
ltibia 25.87989554780882
lfoot -11.656806373634923 2.92355164947384
ltoes 1.6228031876840903
rfemur -17.01210028227666 -0.055961307532651716 20.474393538634665
rtibia 75.46820831237045
rfoot 2.172125946959069 -6.674321589070739
rtoes 9.991391757484573
lowerback 10.10899526096156 1.740379908836596 -0.39793491557838134
upperback 0.5484367778844705 2.2713433911668126 0.2701940892962995
thorax -5.083945429309978 1.1389751525234102 0.23443653360876138
lowerneck -16.60507718667134 -2.719575164601116 -1.839917403274145
upperneck 20.765217319066174 -3.539822204158354 1.1304267823355796
head 9.345398718750463 -1.684638129242619 0.23804375846654868
lclavicle -2.2816394498099632e-15 6.041349685417834e-16
lhumerus -34.33477370423202 3.5143705520144906 82.69744405059215
lradius 21.24434774417897
lwrist 3.663865280428205
lhand -27.233450426945613 22.537718915643442
lfingers 7.12502
lthumb -0.6454666880303829 52.5034035195836
rclavicle -2.2816394498099632e-15 6.041349685417834e-16
rhumerus -27.147543909250768 -19.63696186989053 -80.12913451635589
rradius 24.960250420781364
rwrist 7.2544056291442836
rhand -17.29247968992277 21.592063887607896
rfingers 7.12502
rthumb 8.95307417186765 -8.195986521987683
60
root 0.8550918198775622 17.962526749465805 25.050127479128243 -4.206577137782502 -3.4641443056249646 1.1444301006089503
lfemur -6.554093978734078 -3.6278715126468626 -26.289232585314096
ltibia 26.110745970632692
lfoot -12.930274841824566 3.5222493290251595
ltoes 1.7375246752875673
rfemur -21.66519453873144 -0.6969804002251241 20.431571315911363
rtibia 74.94831828120135
rfoot -3.4090330929003922 -6.453817195937376
rtoes 7.630852143875119
lowerback 10.292435333302961 1.2136661208148143 -0.9059861702925238
upperback 0.6302018056871433 1.5147264039678887 0.43785978305088946
thorax -5.100878531734067 0.779017598134255 0.8294053809443426
lowerneck -16.484502960916966 -2.6450860064767343 -1.9911008726372394
upperneck 20.797057086405765 -3.4054159526116905 1.0866072332590553
head 9.3371506532154 -1.6359624324742397 0.27438559806173696
lclavicle -1.9681484646309272e-15 8.928176164749618e-16
lhumerus -32.15621160733295 1.8934579906790727 83.0101105944764
lradius 22.09089671099344
lwrist 3.6418164365113572
lhand -27.073992458043524 22.90950029991876
lfingers 7.12502
lthumb -0.49147056131734257 52.88055623663288
rclavicle -1.9681484646309272e-15 8.928176164749618e-16
rhumerus -27.705315288383908 -20.059404886399697 -79.7797070056309
rradius 24.79018679988485
rwrist 7.105534683179703
rhand -17.250180324834 21.836875229940926
rfingers 7.12502
rthumb 8.993872578219671 -7.9498087803401045
